<svg width="61" height="22" viewBox="0 0 61 22" fill="none" xmlns="http://www.w3.org/2000/svg">
<g id="Frame 18503">
<path id="Vector 267" d="M4.71205 10.8902C-0.976331 10.7809 -0.204546 5.25185 3.16605 5.25185C6.76214 5.25185 4.88985 10.5822 2.69862 7.90122" stroke="black" stroke-width="0.75"/>
<path id="Vector 271" d="M4.5 10.9658C-1.18838 11.0751 -0.204574 16.3899 3.16602 16.3899C6.76211 16.3899 4.88982 11.0596 2.69859 13.7405" stroke="black" stroke-width="0.75"/>
<path id="Vector 270" d="M59.6859 10.8902H4.3979" stroke="black" stroke-width="0.75" stroke-linecap="round"/>
<path id="Vector 269" d="M59.9999 10.6993C57.3639 9.06525 56.2656 7.43359 52.637 3.44949C49.4692 -0.0287526 43.634 0.199118 43.0356 4.66225C42.5388 8.36763 49.2828 8.13763 47.2356 4.20731" stroke="black" stroke-width="0.75" stroke-linecap="round"/>
<path id="Vector 272" d="M60 10.6991C57.364 12.3332 55.7256 14.4649 52.0971 18.449C48.9292 21.9273 43.0941 21.6994 42.4956 17.2363C41.9988 13.5309 48.7428 13.7609 46.6956 17.6912" stroke="black" stroke-width="0.75" stroke-linecap="round"/>
<path id="Vector 270_2" d="M59.6859 10.8902H4.3979" stroke="black" stroke-width="0.75" stroke-linecap="round"/>
</g>
</svg>
