<?xml version="1.0" encoding="iso-8859-1"?>
<!-- Uploaded to: SVG Repo, www.svgrepo.com, Generator: SVG Repo Mixer Tools -->
<svg version="1.1" id="Layer_1" xmlns="http://www.w3.org/2000/svg" xmlns:xlink="http://www.w3.org/1999/xlink" 
	 viewBox="0 0 512 512" xml:space="preserve">
<path style="fill:#FF738E;" d="M322.73,198.59v-62.704h-24.265L256,111.621l-42.464,24.265H189.27v62.704
	c-57.197,25.549-97.062,82.925-97.062,149.618C92.209,438.668,165.54,512,256,512s163.791-73.332,163.791-163.791
	C419.791,281.515,379.927,224.14,322.73,198.59z"/>
<path style="fill:#FFFFFF;" d="M360.529,299.678H151.471c-6.879,14.759-10.731,31.202-10.731,48.531
	c0,63.555,51.706,115.261,115.261,115.261s115.261-51.706,115.261-115.261C371.261,330.879,367.41,314.437,360.529,299.678"/>
<path style="fill:#FFD37D;" d="M243.867,299.678v115.261c0,6.7,5.432,12.133,12.133,12.133c6.701,0,12.133-5.433,12.133-12.133
	V299.678L256,287.545L243.867,299.678z"/>
<rect x="243.867" y="111.621" style="fill:#FD3B6D;" width="24.265" height="188.057"/>
<rect x="213.536" style="fill:#6BADB4;" width="84.929" height="135.886"/>
<circle style="fill:#0E4675;" cx="256" cy="49.137" r="12.133"/>
</svg>