<svg width="610.545" height="67.044" viewBox="0 0 610.545 67.044" xmlns="http://www.w3.org/2000/svg"><g id="svgGroup" stroke-linecap="round" fill-rule="evenodd" font-size="9pt" stroke="#000" stroke-width="2mm" fill="#000000" style="stroke:#000;stroke-width:1mm;fill:#000000"><path d="M 20.23 52.992 L 13.79 52.992 L 0 15.892 L 6.37 15.892 L 18.62 49.492 L 15.61 49.492 L 28.35 15.892 L 34.02 15.892 L 46.48 49.492 L 43.54 49.492 L 56.07 15.892 L 62.09 15.892 L 48.23 52.992 L 41.79 52.992 L 30.1 22.332 L 32.06 22.332 L 20.23 52.992 Z M 102.27 36.682 L 70.7 36.682 L 70.7 31.852 L 98.77 31.852 L 96.04 33.532 A 15.76 15.76 0 0 0 96.043 33.223 A 12.366 12.366 0 0 0 94.57 27.162 Q 93.03 24.362 90.335 22.787 Q 87.64 21.212 84.07 21.212 Q 80.57 21.212 77.84 22.787 Q 75.11 24.362 73.57 27.197 Q 72.03 30.032 72.03 33.672 L 72.03 34.792 Q 72.03 38.502 73.745 41.407 Q 75.46 44.312 78.54 45.922 Q 81.62 47.532 85.61 47.532 Q 88.9 47.532 91.595 46.412 Q 94.29 45.292 96.32 43.052 L 100.03 47.392 Q 97.51 50.332 93.765 51.872 Q 90.02 53.412 85.4 53.412 Q 79.45 53.412 74.935 50.962 Q 70.42 48.512 67.935 44.242 Q 65.45 39.972 65.45 34.442 Q 65.45 28.912 67.865 24.642 Q 70.28 20.372 74.515 17.957 Q 78.75 15.542 84.07 15.542 Q 89.46 15.542 93.59 17.922 Q 97.72 20.302 100.065 24.607 Q 102.41 28.912 102.41 34.652 Q 102.41 35.072 102.375 35.632 Q 102.34 36.192 102.27 36.682 Z M 240.59 36.682 L 209.02 36.682 L 209.02 31.852 L 237.09 31.852 L 234.36 33.532 A 15.76 15.76 0 0 0 234.363 33.223 A 12.366 12.366 0 0 0 232.89 27.162 Q 231.35 24.362 228.655 22.787 Q 225.96 21.212 222.39 21.212 Q 218.89 21.212 216.16 22.787 Q 213.43 24.362 211.89 27.197 Q 210.35 30.032 210.35 33.672 L 210.35 34.792 Q 210.35 38.502 212.065 41.407 Q 213.78 44.312 216.86 45.922 Q 219.94 47.532 223.93 47.532 Q 227.22 47.532 229.915 46.412 Q 232.61 45.292 234.64 43.052 L 238.35 47.392 Q 235.83 50.332 232.085 51.872 Q 228.34 53.412 223.72 53.412 Q 217.77 53.412 213.255 50.962 Q 208.74 48.512 206.255 44.242 Q 203.77 39.972 203.77 34.442 Q 203.77 28.912 206.185 24.642 Q 208.6 20.372 212.835 17.957 Q 217.07 15.542 222.39 15.542 Q 227.78 15.542 231.91 17.922 Q 236.04 20.302 238.385 24.607 Q 240.73 28.912 240.73 34.652 Q 240.73 35.072 240.695 35.632 Q 240.66 36.192 240.59 36.682 Z M 538.86 36.682 L 507.29 36.682 L 507.29 31.852 L 535.36 31.852 L 532.63 33.532 A 15.76 15.76 0 0 0 532.633 33.223 A 12.366 12.366 0 0 0 531.16 27.162 Q 529.62 24.362 526.925 22.787 Q 524.23 21.212 520.66 21.212 Q 517.16 21.212 514.43 22.787 Q 511.7 24.362 510.16 27.197 Q 508.62 30.032 508.62 33.672 L 508.62 34.792 Q 508.62 38.502 510.335 41.407 Q 512.05 44.312 515.13 45.922 Q 518.21 47.532 522.2 47.532 Q 525.49 47.532 528.185 46.412 Q 530.88 45.292 532.91 43.052 L 536.62 47.392 Q 534.1 50.332 530.355 51.872 Q 526.61 53.412 521.99 53.412 Q 516.04 53.412 511.525 50.962 Q 507.01 48.512 504.525 44.242 Q 502.04 39.972 502.04 34.442 Q 502.04 28.912 504.455 24.642 Q 506.87 20.372 511.105 17.957 Q 515.34 15.542 520.66 15.542 Q 526.05 15.542 530.18 17.922 Q 534.31 20.302 536.655 24.607 Q 539 28.912 539 34.652 Q 539 35.072 538.965 35.632 Q 538.93 36.192 538.86 36.682 Z M 610.4 36.682 L 578.83 36.682 L 578.83 31.852 L 606.9 31.852 L 604.17 33.532 A 15.76 15.76 0 0 0 604.173 33.223 A 12.366 12.366 0 0 0 602.7 27.162 Q 601.16 24.362 598.465 22.787 Q 595.77 21.212 592.2 21.212 Q 588.7 21.212 585.97 22.787 Q 583.24 24.362 581.7 27.197 Q 580.16 30.032 580.16 33.672 L 580.16 34.792 Q 580.16 38.502 581.875 41.407 Q 583.59 44.312 586.67 45.922 Q 589.75 47.532 593.74 47.532 Q 597.03 47.532 599.725 46.412 Q 602.42 45.292 604.45 43.052 L 608.16 47.392 Q 605.64 50.332 601.895 51.872 Q 598.15 53.412 593.53 53.412 Q 587.58 53.412 583.065 50.962 Q 578.55 48.512 576.065 44.242 Q 573.58 39.972 573.58 34.442 Q 573.58 28.912 575.995 24.642 Q 578.41 20.372 582.645 17.957 Q 586.88 15.542 592.2 15.542 Q 597.59 15.542 601.72 17.922 Q 605.85 20.302 608.195 24.607 Q 610.54 28.912 610.54 34.652 Q 610.54 35.072 610.505 35.632 Q 610.47 36.192 610.4 36.682 Z M 493.01 31.642 L 493.01 52.992 L 486.29 52.992 L 486.29 32.412 Q 486.29 27.022 483.665 24.292 Q 481.04 21.562 476.28 21.562 Q 472.71 21.562 470.05 22.962 Q 467.39 24.362 465.955 27.092 Q 464.52 29.822 464.52 33.882 L 464.52 52.992 L 457.8 52.992 L 457.8 1.052 L 464.52 1.052 L 464.52 25.902 L 463.19 23.242 Q 465.01 19.602 468.79 17.572 Q 472.57 15.542 477.61 15.542 Q 482.16 15.542 485.625 17.292 Q 489.09 19.042 491.05 22.612 Q 493.01 26.182 493.01 31.642 Z M 285.25 31.642 L 285.25 52.992 L 278.53 52.992 L 278.53 32.412 Q 278.53 27.022 275.905 24.292 Q 273.28 21.562 268.52 21.562 Q 264.95 21.562 262.29 22.962 Q 259.63 24.362 258.195 27.092 Q 256.76 29.822 256.76 33.882 L 256.76 52.992 L 250.04 52.992 L 250.04 15.892 L 256.48 15.892 L 256.48 25.902 L 255.43 23.242 Q 257.25 19.602 261.03 17.572 Q 264.81 15.542 269.85 15.542 Q 274.4 15.542 277.865 17.292 Q 281.33 19.042 283.29 22.612 Q 285.25 26.182 285.25 31.642 Z M 399.21 49.072 L 402.01 43.752 Q 404.39 45.362 407.89 46.482 Q 411.39 47.602 415.03 47.602 Q 419.72 47.602 421.785 46.272 Q 423.85 44.942 423.85 42.562 Q 423.85 40.812 422.59 39.832 Q 421.33 38.852 419.265 38.362 Q 417.2 37.872 414.68 37.487 Q 412.16 37.102 409.64 36.507 Q 407.12 35.912 405.02 34.827 Q 402.92 33.742 401.66 31.817 Q 400.4 29.892 400.4 26.672 Q 400.4 23.312 402.29 20.792 Q 404.18 18.272 407.645 16.907 Q 411.11 15.542 415.87 15.542 Q 419.51 15.542 423.255 16.417 Q 427 17.292 429.38 18.902 L 426.51 24.222 Q 423.99 22.542 421.26 21.912 Q 418.53 21.282 415.8 21.282 Q 411.39 21.282 409.22 22.717 Q 407.05 24.152 407.05 26.392 Q 407.05 28.282 408.345 29.297 Q 409.64 30.312 411.705 30.872 Q 413.77 31.432 416.29 31.817 Q 418.81 32.202 421.33 32.797 Q 423.85 33.392 425.915 34.442 Q 427.98 35.492 429.275 37.382 Q 430.57 39.272 430.57 42.422 Q 430.57 45.782 428.61 48.232 Q 426.65 50.682 423.08 52.047 Q 419.51 53.412 414.54 53.412 Q 409.92 53.412 405.755 52.152 Q 401.59 50.892 399.21 49.072 Z M 315.77 61.462 L 318.99 56.282 Q 321.58 58.522 325.36 59.817 Q 329.14 61.112 333.27 61.112 Q 339.85 61.112 342.93 58.032 Q 346.01 54.952 346.01 48.652 L 346.01 40.812 L 346.71 33.462 L 346.36 26.042 L 346.36 15.892 L 352.73 15.892 L 352.73 47.952 Q 352.73 57.752 347.83 62.372 Q 342.93 66.992 333.48 66.992 Q 328.37 66.992 323.575 65.557 Q 318.78 64.122 315.77 61.462 Z M 555.03 52.992 L 548.31 52.992 L 548.31 15.892 L 554.75 15.892 L 554.75 25.972 L 554.12 23.452 Q 555.66 19.602 559.3 17.572 Q 562.94 15.542 568.26 15.542 L 568.26 22.052 Q 567.84 21.982 567.455 21.982 L 566.72 21.982 Q 561.33 21.982 558.18 25.202 Q 555.03 28.422 555.03 34.512 L 555.03 52.992 Z M 146.72 52.992 L 140.28 52.992 L 140.28 42.982 L 140.7 34.372 L 140 25.762 L 140 1.052 L 146.72 1.052 L 146.72 52.992 Z M 194.46 52.992 L 188.02 52.992 L 188.02 42.982 L 188.44 34.372 L 187.74 25.762 L 187.74 1.052 L 194.46 1.052 L 194.46 52.992 Z M 127.05 53.412 Q 121.66 53.412 117.425 51.032 Q 113.19 48.652 110.74 44.382 Q 108.29 40.112 108.29 34.442 Q 108.29 28.772 110.74 24.537 Q 113.19 20.302 117.425 17.922 Q 121.66 15.542 127.05 15.542 Q 131.74 15.542 135.52 17.642 Q 139.3 19.742 141.575 23.942 Q 143.85 28.142 143.85 34.442 Q 143.85 40.742 141.645 44.942 Q 139.44 49.142 135.66 51.277 Q 131.88 53.412 127.05 53.412 Z M 174.79 53.412 Q 169.4 53.412 165.165 51.032 Q 160.93 48.652 158.48 44.382 Q 156.03 40.112 156.03 34.442 Q 156.03 28.772 158.48 24.537 Q 160.93 20.302 165.165 17.922 Q 169.4 15.542 174.79 15.542 Q 179.48 15.542 183.26 17.642 Q 187.04 19.742 189.315 23.942 Q 191.59 28.142 191.59 34.442 Q 191.59 40.742 189.385 44.942 Q 187.18 49.142 183.4 51.277 Q 179.62 53.412 174.79 53.412 Z M 332.64 51.452 Q 327.25 51.452 323.015 49.177 Q 318.78 46.902 316.295 42.842 Q 313.81 38.782 313.81 33.462 Q 313.81 28.072 316.295 24.047 Q 318.78 20.022 323.015 17.782 Q 327.25 15.542 332.64 15.542 Q 337.4 15.542 341.32 17.467 Q 345.24 19.392 347.585 23.382 Q 349.93 27.372 349.93 33.462 Q 349.93 39.482 347.585 43.472 Q 345.24 47.462 341.32 49.457 Q 337.4 51.452 332.64 51.452 Z M 304.43 52.992 L 297.71 52.992 L 297.71 15.892 L 304.43 15.892 L 304.43 52.992 Z M 391.09 52.992 L 384.37 52.992 L 384.37 15.892 L 391.09 15.892 L 391.09 52.992 Z M 127.61 47.532 Q 131.11 47.532 133.945 45.922 Q 136.78 44.312 138.425 41.337 Q 140.07 38.362 140.07 34.442 Q 140.07 30.452 138.425 27.547 Q 136.78 24.642 133.945 23.032 Q 131.11 21.422 127.61 21.422 Q 124.04 21.422 121.24 23.032 Q 118.44 24.642 116.76 27.547 Q 115.08 30.452 115.08 34.442 Q 115.08 38.362 116.76 41.337 Q 118.44 44.312 121.24 45.922 Q 124.04 47.532 127.61 47.532 Z M 175.35 47.532 Q 178.85 47.532 181.685 45.922 Q 184.52 44.312 186.165 41.337 Q 187.81 38.362 187.81 34.442 Q 187.81 30.452 186.165 27.547 Q 184.52 24.642 181.685 23.032 Q 178.85 21.422 175.35 21.422 Q 171.78 21.422 168.98 23.032 Q 166.18 24.642 164.5 27.547 Q 162.82 30.452 162.82 34.442 Q 162.82 38.362 164.5 41.337 Q 166.18 44.312 168.98 45.922 Q 171.78 47.532 175.35 47.532 Z M 333.41 45.572 Q 337.12 45.572 339.99 44.032 Q 342.86 42.492 344.505 39.762 Q 346.15 37.032 346.15 33.462 Q 346.15 29.892 344.505 27.162 Q 342.86 24.432 339.99 22.927 Q 337.12 21.422 333.41 21.422 Q 329.7 21.422 326.795 22.927 Q 323.89 24.432 322.245 27.162 Q 320.6 29.892 320.6 33.462 Q 320.6 37.032 322.245 39.762 Q 323.89 42.492 326.795 44.032 Q 329.7 45.572 333.41 45.572 Z M 301.07 8.752 Q 299.11 8.752 297.815 7.492 Q 296.52 6.232 296.52 4.412 Q 296.52 2.522 297.815 1.262 Q 299.11 0.002 301.07 0.002 Q 303.03 0.002 304.325 1.227 Q 305.62 2.452 305.62 4.272 Q 305.62 6.162 304.36 7.457 Q 303.1 8.752 301.07 8.752 Z M 387.73 8.752 Q 385.77 8.752 384.475 7.492 Q 383.18 6.232 383.18 4.412 Q 383.18 2.522 384.475 1.262 Q 385.77 0.002 387.73 0.002 Q 389.69 0.002 390.985 1.227 Q 392.28 2.452 392.28 4.272 Q 392.28 6.162 391.02 7.457 Q 389.76 8.752 387.73 8.752 Z" vector-effect="non-scaling-stroke"/></g></svg>